<svg width="12" height="16" viewBox="0 0 12 16" fill="none" xmlns="http://www.w3.org/2000/svg">
<path d="M6 11.5901V15.3593" stroke="#9B8049" stroke-linecap="round" stroke-linejoin="round"/>
<path d="M3.30811 15.3591H8.69272" stroke="#9B8049" stroke-linecap="round" stroke-linejoin="round"/>
<path d="M2.77549 1.35913H9.22491L10.6915 6.33519C10.8901 7.00237 10.8994 7.71157 10.7185 8.38375C10.5377 9.05592 10.1737 9.66466 9.66712 10.1421C8.67247 11.073 7.36113 11.5909 5.99885 11.5909C4.63657 11.5909 3.32524 11.073 2.33058 10.1421C1.82464 9.66428 1.46125 9.0554 1.28085 8.38327C1.10046 7.71114 1.11016 7.00214 1.30885 6.33519L2.77549 1.35913Z" stroke="#9B8049" stroke-linecap="round" stroke-linejoin="round"/>
<path d="M1.41406 5.97791C2.26416 5.61378 3.79272 5.35733 6.00041 6.47464C8.41406 7.69695 10.0167 7.27493 10.8075 6.86772" stroke="#9B8049" stroke-linecap="round" stroke-linejoin="round"/>
</svg>
