<svg width="24" height="25" viewBox="0 0 24 25" fill="none" xmlns="http://www.w3.org/2000/svg">
<g clip-path="url(#clip0_528_12344)">
<path d="M2 18.3591H9V20.3591H2V18.3591ZM2 11.3591H11V13.3591H2V11.3591ZM2 4.35913H22V6.35913H2V4.35913ZM20.674 13.3841L21.83 12.9931L22.83 14.7251L21.914 15.5301C22.0293 16.0768 22.0293 16.6415 21.914 17.1881L22.83 17.9931L21.83 19.7251L20.674 19.3341C20.264 19.7041 19.776 19.9891 19.239 20.1641L19 21.3591H17L16.76 20.1631C16.2293 19.9897 15.7408 19.7069 15.326 19.3331L14.17 19.7251L13.17 17.9931L14.086 17.1881C13.9707 16.6415 13.9707 16.0768 14.086 15.5301L13.17 14.7251L14.17 12.9931L15.326 13.3841C15.736 13.0141 16.224 12.7291 16.761 12.5541L17 11.3591H19L19.24 12.5551C19.776 12.7291 20.264 13.0151 20.674 13.3851V13.3841ZM18 18.3591C18.5304 18.3591 19.0391 18.1484 19.4142 17.7733C19.7893 17.3983 20 16.8896 20 16.3591C20 15.8287 19.7893 15.32 19.4142 14.9449C19.0391 14.5698 18.5304 14.3591 18 14.3591C17.4696 14.3591 16.9609 14.5698 16.5858 14.9449C16.2107 15.32 16 15.8287 16 16.3591C16 16.8896 16.2107 17.3983 16.5858 17.7733C16.9609 18.1484 17.4696 18.3591 18 18.3591Z" fill="#03053D"/>
</g>
<defs>
<clipPath id="clip0_528_12344">
<rect width="24" height="24" fill="white" transform="translate(0 0.359131)"/>
</clipPath>
</defs>
</svg>
