<svg width="22" height="14" viewBox="0 0 22 14" fill="none" xmlns="http://www.w3.org/2000/svg">
<path d="M7.66667 1.35913H5.66667C5.29848 1.35913 5 1.65761 5 2.02581V12.6926C5 13.0608 5.29848 13.3593 5.66667 13.3593H7.66667C8.03486 13.3593 8.33333 13.0608 8.33333 12.6926V2.02581C8.33333 1.65761 8.03486 1.35913 7.66667 1.35913Z" stroke="#9B8049" stroke-linecap="round" stroke-linejoin="round"/>
<path d="M16.3332 1.35913H14.3332C13.965 1.35913 13.6665 1.65761 13.6665 2.02581V12.6926C13.6665 13.0608 13.965 13.3593 14.3332 13.3593H16.3332C16.7014 13.3593 16.9998 13.0608 16.9998 12.6926V2.02581C16.9998 1.65761 16.7014 1.35913 16.3332 1.35913Z" stroke="#9B8049" stroke-linecap="round" stroke-linejoin="round"/>
<path d="M17 3.35913H19C19.1768 3.35913 19.3464 3.42937 19.4714 3.5544C19.5964 3.67942 19.6667 3.84899 19.6667 4.02581V10.6926C19.6667 10.8694 19.5964 11.039 19.4714 11.164C19.3464 11.289 19.1768 11.3593 19 11.3593H17" stroke="#9B8049" stroke-linecap="round" stroke-linejoin="round"/>
<path d="M5.00016 11.3593H3.00016C2.82335 11.3593 2.65378 11.289 2.52876 11.164C2.40373 11.039 2.3335 10.8694 2.3335 10.6926V4.02581C2.3335 3.84899 2.40373 3.67942 2.52876 3.5544C2.65378 3.42937 2.82335 3.35913 3.00016 3.35913H5.00016" stroke="#9B8049" stroke-linecap="round" stroke-linejoin="round"/>
<path d="M8.3335 7.35913H13.6668" stroke="#9B8049" stroke-linecap="round" stroke-linejoin="round"/>
<path d="M19.6665 7.35913H20.9998" stroke="#9B8049" stroke-linecap="round" stroke-linejoin="round"/>
<path d="M1 7.35913H2.33333" stroke="#9B8049" stroke-linecap="round" stroke-linejoin="round"/>
</svg>
