<svg width="24" height="25" viewBox="0 0 24 25" fill="none" xmlns="http://www.w3.org/2000/svg">
<g clip-path="url(#clip0_595_25834)">
<path d="M2 22.5535C2 20.4317 2.84285 18.3969 4.34315 16.8966C5.84344 15.3963 7.87827 14.5535 10 14.5535C12.1217 14.5535 14.1566 15.3963 15.6569 16.8966C17.1571 18.3969 18 20.4317 18 22.5535H16C16 20.9622 15.3679 19.436 14.2426 18.3108C13.1174 17.1856 11.5913 16.5535 10 16.5535C8.4087 16.5535 6.88258 17.1856 5.75736 18.3108C4.63214 19.436 4 20.9622 4 22.5535H2ZM10 13.5535C6.685 13.5535 4 10.8685 4 7.55347C4 4.23847 6.685 1.55347 10 1.55347C13.315 1.55347 16 4.23847 16 7.55347C16 10.8685 13.315 13.5535 10 13.5535ZM10 11.5535C12.21 11.5535 14 9.76347 14 7.55347C14 5.34347 12.21 3.55347 10 3.55347C7.79 3.55347 6 5.34347 6 7.55347C6 9.76347 7.79 11.5535 10 11.5535ZM18.284 15.2565C19.6893 15.8894 20.882 16.9147 21.7186 18.2092C22.5552 19.5036 23.0002 21.0122 23 22.5535H21C21.0002 21.3974 20.6666 20.266 20.0391 19.2951C19.4116 18.3241 18.5171 17.5551 17.463 17.0805L18.283 15.2565H18.284ZM17.596 3.96647C18.6035 4.38176 19.465 5.087 20.071 5.9927C20.6771 6.89839 21.0004 7.96371 21 9.05347C21.0004 10.4258 20.4877 11.7487 19.5625 12.7623C18.6374 13.7759 17.3667 14.4069 16 14.5315V12.5185C16.7409 12.4123 17.4283 12.0715 17.9613 11.5459C18.4943 11.0204 18.8447 10.3378 18.9612 9.5984C19.0776 8.85901 18.954 8.10176 18.6084 7.43782C18.2628 6.77388 17.7134 6.23821 17.041 5.90947L17.596 3.96647Z" fill="#8C8C8C"/>
</g>
<defs>
<clipPath id="clip0_595_25834">
<rect width="24" height="24" fill="white" transform="translate(0 0.553467)"/>
</clipPath>
</defs>
</svg>
