<svg width="121" height="49" viewBox="0 0 121 49" fill="none" xmlns="http://www.w3.org/2000/svg">
<g id="Group 1000003116">
<path id="Vector" d="M31.0348 38.737C29.68 38.4866 28.9556 37.3214 28.7625 36.9658C25.987 40.6944 21.5023 42.7667 18.6351 43.8452C15.7699 42.7667 11.2856 40.6944 8.50938 36.9658C8.31744 37.3214 7.59224 38.4866 6.23896 38.737C6.23896 38.737 6.4696 39.7188 5.69873 40.3333C7.02027 41.7984 11.1095 46.0177 18.6351 48.042C26.1631 46.0177 30.2516 41.7984 31.5727 40.3333C30.805 39.7188 31.0348 38.737 31.0348 38.737Z" fill="#DBB467"/>
<path id="Vector_2" d="M18.8017 12.8973L18.6357 12.8637L18.472 12.8973C9.95148 14.6422 6.40905 16.7323 6.26199 16.8175L5.86572 17.0589V26.1553C5.86572 31.0193 8.03785 35.3291 12.1476 38.6173C15.2168 41.0696 18.253 42.0816 18.3792 42.1237L18.6357 42.2085L18.8927 42.1237C19.0196 42.0816 22.0559 41.0696 25.1223 38.6173C29.2348 35.3291 31.4065 31.0193 31.4065 26.1553V17.0589L31.0083 16.8175C30.8628 16.7323 27.3223 14.6422 18.8017 12.8973ZM30.5861 26.1553C30.5861 37.4204 18.6357 41.3432 18.6357 41.3432C18.6357 41.3432 6.68651 37.4204 6.68651 26.1553V17.5233C6.68651 17.5233 10.1554 15.4371 18.6357 13.7022C27.1195 15.4371 30.5861 17.5233 30.5861 17.5233V26.1553Z" fill="#DBB467"/>
<path id="Vector_3" d="M26.131 9.8418C26.5698 9.68739 28.687 9.20289 28.9297 10.3379C28.9297 10.3379 29.6378 8.80082 28.0249 8.30548C28.0249 8.30548 28.5373 7.63252 29.6781 7.87748C30.2446 8.00131 30.7996 8.29697 31.0708 9.0125C31.1838 9.3128 31.255 9.91765 31.1254 10.2888C30.9601 10.0891 30.7063 9.96215 30.4261 9.96061C29.9238 9.96215 29.5167 10.3693 29.5167 10.8689C29.5167 11.3715 29.9285 11.7771 30.4284 11.7771C30.6223 11.7771 30.8034 11.7175 30.9501 11.6107C30.9501 11.6107 31.2005 11.4567 31.4706 11.0484C31.9388 10.3309 32.505 9.04191 31.5205 7.42704C31.5205 7.42704 29.7551 4.54789 25.9302 7.08649C25.9302 7.08649 24.2522 8.42468 22.8053 7.59963C22.1633 7.3152 21.7136 6.65307 21.7136 5.88181C21.7136 5.67284 21.7508 5.47239 21.81 5.2847C21.8251 5.24794 21.8378 5.2077 21.8514 5.17171C21.8823 5.09779 21.9121 5.02272 21.9508 4.955C22.0093 4.84703 22.0805 4.74757 22.1575 4.65663C22.178 4.63109 22.2008 4.60903 22.2225 4.58581C22.2821 4.52274 22.3455 4.46237 22.4117 4.40741C22.4423 4.38304 22.474 4.36137 22.5054 4.33776C22.5758 4.29016 22.6466 4.24604 22.7221 4.20812C22.753 4.19264 22.7848 4.17523 22.8157 4.16052C22.9249 4.11447 23.0379 4.07422 23.1555 4.05139C22.8223 4.30487 22.6489 4.73983 22.7441 5.18138C22.8788 5.78584 23.4763 6.17012 24.0854 6.03661C24.6543 5.91123 25.0293 5.37177 24.9588 4.80175C24.9619 4.80484 24.9619 4.80678 24.9627 4.81104C24.9573 4.7793 24.9523 4.74757 24.9465 4.717C24.9445 4.71081 24.9445 4.70539 24.9418 4.69727C24.9263 4.63535 24.9078 4.57382 24.8845 4.51848C24.8787 4.50571 24.8776 4.49526 24.8722 4.48249V4.47823C24.8319 4.38574 24.7866 4.29519 24.7305 4.21199C24.4832 3.85016 24.0444 3.44886 23.356 3.4152C22.9906 3.39817 22.4852 3.55489 22.3084 3.62571C21.8699 3.79753 21.0685 4.24411 20.7752 5.26535C19.8259 8.5992 23.0804 10.9083 26.131 9.8418Z" fill="#DBB467"/>
<path id="Vector_4" d="M31.4065 14.0624L31.0083 13.824C30.8628 13.7334 27.3223 11.6464 18.8017 9.90154L18.6357 9.8671L18.472 9.90154C9.95148 11.6464 6.40943 13.7334 6.26199 13.824L5.86572 14.0624V16.1025L6.26199 15.863C6.40943 15.774 9.95148 13.6858 18.472 11.9421L18.6357 11.9053L18.8017 11.9421C27.3223 13.6858 30.8628 15.774 31.0083 15.863L31.4065 16.1025V14.0624Z" fill="#DBB467"/>
<path id="Vector_5" d="M32.1468 12.8645C32.1468 12.8645 32.1475 12.8645 32.1483 12.8656C32.2427 13.4132 32.7067 13.8401 33.286 13.866C33.9532 13.8954 34.5221 13.3784 34.5538 12.7109C34.5778 12.1776 34.2539 11.7155 33.7872 11.5313L33.7864 11.5286C33.7682 11.5201 33.7477 11.5162 33.7299 11.5089C33.69 11.4969 33.6517 11.4814 33.6123 11.4737C33.5422 11.4559 33.4698 11.4443 33.3955 11.4404C32.7268 11.4114 32.1595 11.9295 32.1282 12.5971C32.1266 12.6857 32.1321 12.7728 32.1468 12.8552V12.8645Z" fill="#DBB467"/>
<path id="Vector_6" d="M16.97 3.70717C17.2982 4.05468 17.9742 4.70249 18.5149 6.5898H18.5183C18.5373 6.63353 18.5841 6.66797 18.6364 6.66797C18.6917 6.66797 18.7362 6.63353 18.7563 6.5898H18.7606C19.2973 4.70249 19.9773 4.05468 20.3027 3.70717L20.3015 3.70176C20.3399 3.65029 20.3646 3.58179 20.3646 3.51136C20.3646 3.34999 20.2539 3.2215 20.1015 3.19287L20.1007 3.19132C20.0829 3.18629 20.0643 3.18436 20.0457 3.18436H18.6364H17.2266C17.2088 3.18436 17.1902 3.18629 17.1728 3.19132L17.1705 3.19287C17.0207 3.2215 16.9077 3.34999 16.9077 3.51136C16.9077 3.58179 16.9325 3.65029 16.9735 3.70176L16.97 3.70717Z" fill="#DBB467"/>
<path id="Vector_7" d="M17.0344 1.54501C17.416 1.60654 17.7074 1.93625 17.7074 2.33291V2.36735H17.5809C17.4965 2.36735 17.4299 2.43313 17.4299 2.51711C17.4299 2.59682 17.4965 2.66455 17.5809 2.66455H18.6354H19.6938C19.7781 2.66455 19.8451 2.59682 19.8451 2.51711C19.8451 2.43313 19.7781 2.36735 19.6938 2.36735H19.568V2.33291C19.568 1.93625 19.8598 1.60654 20.2429 1.54501C20.3133 1.53495 20.366 1.47149 20.366 1.39758V1.3581C20.366 1.31321 20.3493 1.27374 20.3149 1.24704C20.2804 1.21685 20.2429 1.2033 20.1942 1.21259C19.9124 1.25516 19.6516 1.40338 19.4709 1.63441V1.61196V1.58951V1.58835L19.4689 1.56746V1.56629C19.4689 1.55236 19.4678 1.53495 19.4655 1.52063L19.462 1.49973V1.49896L19.4573 1.48154L19.4531 1.45794V1.45678L19.45 1.43627L19.4473 1.41769V1.41498L19.4403 1.39525V1.39331L19.4337 1.37358L19.4291 1.355V1.35152L19.4206 1.33372V1.3314L19.4128 1.31321V1.31166L19.4047 1.29424V1.29193L19.3985 1.27374V1.27296L19.3904 1.25516L19.3815 1.2362L19.3695 1.21685V1.2157L19.3598 1.19828H19.3587L19.3505 1.18203V1.17854L19.3401 1.16151V1.16035L19.3285 1.14333L19.3172 1.12707L19.3053 1.11044V1.10811L19.3037 1.10462L19.2929 1.09302L19.282 1.07716L19.2782 1.07522L19.2669 1.06013L19.2565 1.04658L19.2553 1.04464L19.2515 1.04116L19.241 1.02839L19.2275 1.01563L19.2147 1.00014H19.2104L19.1969 0.986988V0.984661L19.183 0.971895V0.969179L19.169 0.956412H19.1667L19.1528 0.944414V0.942866L19.1358 0.932415L19.1187 0.917712L19.1067 0.908429H19.1013C19.0916 0.898368 19.08 0.891011 19.0711 0.884432L19.0522 0.872055V0.871665L19.0351 0.860824L19.0181 0.851542H19.0166L18.9995 0.843027L18.9821 0.833355L18.962 0.825997L18.9423 0.817482L18.9264 0.809747L18.9051 0.801232H18.904L18.8869 0.794654L18.8649 0.787297L18.8444 0.782655L18.8258 0.778782L18.8076 0.772593L18.7867 0.769889C18.7782 0.768341 18.7704 0.766795 18.7646 0.766795V0.764858L18.7453 0.760985L18.7244 0.75789H18.6996L18.6811 0.755186H18.659L18.6354 0.754017L18.6172 0.755186H18.6145H18.5948L18.5735 0.75789H18.5715H18.5537L18.5301 0.760985L18.5116 0.764858V0.766795L18.4899 0.769889L18.4698 0.772593C18.4628 0.775689 18.4585 0.77646 18.45 0.778782L18.4299 0.782655L18.4106 0.787297H18.4078L18.3893 0.794654L18.3703 0.801232L18.3506 0.809747L18.3312 0.817482L18.313 0.825997L18.2941 0.833355H18.2921L18.2774 0.843027L18.2589 0.851542H18.2577L18.2414 0.860824L18.2233 0.871665V0.872055L18.2047 0.884432C18.1946 0.891011 18.183 0.898368 18.1722 0.908429L18.1548 0.917712H18.1536L18.1408 0.932415L18.1223 0.942866V0.944414L18.1068 0.956412L18.0928 0.969179L18.0901 0.971895L18.0777 0.984661V0.986988L18.0611 1.00014L18.0487 1.01563L18.0348 1.02839L18.0251 1.04116L18.0193 1.04464V1.04658L18.0062 1.06013L17.9926 1.07522V1.07716L17.9825 1.09302L17.9713 1.10462L17.9698 1.10811V1.11044L17.9586 1.12707H17.9578L17.9466 1.14333H17.9458L17.9349 1.16035V1.16151L17.9284 1.17854L17.9249 1.18203L17.9133 1.19828L17.9032 1.2157V1.21685L17.8947 1.2362L17.8866 1.25516L17.8769 1.27296V1.27374L17.8696 1.29193V1.29424L17.8637 1.31166V1.31321L17.8548 1.3314V1.33372L17.8479 1.35152V1.355L17.8409 1.37358L17.8374 1.39331V1.39525L17.8289 1.41498V1.41769L17.8239 1.43627L17.8216 1.45678V1.45794L17.8177 1.48154L17.8142 1.49896V1.49973L17.8107 1.52063C17.8088 1.53495 17.8049 1.55236 17.8049 1.56629V1.56746V1.58835V1.58951V1.61196L17.8026 1.63441C17.6227 1.40338 17.3642 1.25516 17.0778 1.21259C17.0344 1.2033 16.9934 1.21685 16.9594 1.24704C16.9249 1.27374 16.9067 1.31321 16.9067 1.3581V1.39758C16.9067 1.47149 16.9621 1.53495 17.0344 1.54501Z" fill="#DBB467"/>
<path id="Vector_8" d="M34.6175 35.6798C34.6275 35.6805 34.6364 35.6836 34.645 35.6836C34.4824 35.5625 34.3203 35.4905 34.1361 35.4116C33.3826 35.0904 32.3413 35.6031 32.2108 35.6666C32.1439 35.7011 32.0789 35.7285 32.0123 35.756C31.842 35.8226 31.69 35.8566 31.5445 35.8802C31.4493 35.8949 31.3529 35.8949 31.2562 35.8822C30.6409 35.8075 30.2094 35.2251 30.2906 34.5835C30.3181 34.3582 30.4044 34.1539 30.534 33.9887C29.8139 34.0757 29.5124 34.9708 29.5124 34.9708C29.048 36.403 30.1223 37.2451 30.6873 37.5799C30.772 37.6267 30.8963 37.689 31.0263 37.7432C31.1923 37.8151 31.9818 38.0338 32.1648 38.1185C32.2302 38.1514 32.289 38.1804 32.3447 38.213C32.4697 38.2787 32.5808 38.3708 32.6714 38.4769C32.3556 38.5191 32.1021 38.7764 32.0808 39.1053C32.0735 39.264 32.1133 39.4114 32.1973 39.5353C32.219 39.5647 32.2956 39.6521 32.3215 39.6738C32.3223 39.6796 32.3281 39.6804 32.3281 39.6831C32.3583 39.709 32.45 39.7694 32.4732 39.7795C32.5982 39.8433 32.7337 39.8808 32.8826 39.8901C33.2623 39.913 33.6098 39.7342 33.8342 39.4443C33.8342 39.4443 33.8323 39.4474 33.8311 39.4486C33.8342 39.4467 33.8342 39.4443 33.8365 39.4424C33.8497 39.4242 33.8621 39.4025 33.876 39.384C33.878 39.3782 33.8818 39.3731 33.8849 39.3681C33.9271 39.3046 33.9612 39.2385 33.9914 39.168C33.9979 39.1475 34.0064 39.1289 34.0138 39.1092C34.0509 39.0059 34.08 38.8971 34.0873 38.7845C34.0943 38.6595 34.0873 38.54 34.0587 38.4266C33.9805 38.0702 33.6655 37.6824 33.4828 37.4343C33.4828 37.4343 33.4801 37.4289 33.4774 37.4258C33.4592 37.3999 33.443 37.3767 33.4267 37.3546C33.4236 37.3515 33.4205 37.3469 33.4182 37.3434C33.3896 37.2993 33.3695 37.2641 33.3586 37.2339C33.2681 37.0493 33.229 36.8357 33.2553 36.6174C33.2859 36.3721 33.3985 36.1569 33.5568 35.9913C33.4585 36.2529 33.52 36.5567 33.7379 36.7571C34.0262 37.018 34.4697 36.9978 34.7301 36.7084C34.9901 36.4228 34.9704 35.9774 34.6833 35.7181C34.6639 35.7011 34.6388 35.6941 34.6175 35.6798Z" fill="#DBB467"/>
<path id="Vector_9" d="M37.2612 32.0739C37.2504 32.0015 37.2183 31.8885 37.1819 31.7778C37.1444 31.6621 37.1022 31.5519 37.0817 31.495L37.0801 31.4895C37.0801 31.4895 37.0801 31.4868 37.0786 31.4845C37.0712 31.4667 37.0658 31.4551 37.0658 31.4551C36.9741 31.964 36.8514 32.5089 36.2961 32.844C35.288 33.4558 34.1573 32.6795 34.1186 31.4056C34.1151 31.2709 34.1186 31.1428 34.1255 31.0221C34.1731 31.0677 34.2254 31.1033 34.2854 31.1347C34.2854 31.1347 35.153 31.6803 35.836 31.0503C35.8379 31.0476 36.0616 30.8274 36.0709 30.5302C35.8418 30.6579 35.5806 30.7206 35.3546 30.6765C34.8318 30.5759 34.4254 30.0631 34.6658 29.3731C34.6836 29.3209 34.701 29.2714 34.7203 29.2249C34.98 28.7122 35.206 28.1979 35.1255 27.3926C35.1185 27.3241 35.1031 27.2478 35.0837 27.1704C35.0733 27.1333 35.0547 27.0923 35.0392 27.0524C35.0253 27.0137 35.0148 26.9731 34.9978 26.9336C34.9773 26.8895 34.9517 26.8481 34.9289 26.8055C34.9084 26.766 34.8894 26.7273 34.8666 26.6906C34.8415 26.6496 34.8093 26.612 34.7807 26.5722C34.7517 26.5319 34.7257 26.4944 34.6936 26.4584C34.6623 26.4224 34.6259 26.3903 34.5938 26.357C34.5535 26.3214 34.5202 26.2839 34.48 26.2514C34.444 26.2208 34.4022 26.198 34.3647 26.172C34.319 26.1422 34.2737 26.1109 34.2254 26.0846C34.1836 26.0641 34.1375 26.0478 34.0942 26.0312C34.0412 26.0107 33.9882 25.989 33.9309 25.9739C33.8848 25.9634 33.8345 25.9588 33.7865 25.9518C33.7409 25.9453 33.6995 25.9333 33.655 25.9313H33.5482L33.5443 25.9333C33.5482 25.9333 33.4166 25.9356 33.3461 25.9507C32.9309 26.0474 32.6716 26.4603 32.7661 26.8767C32.8609 27.2927 33.2749 27.5524 33.6902 27.4568C33.7827 27.4355 33.8624 27.3961 33.9367 27.3473C33.9556 27.3365 33.9707 27.326 33.9882 27.314C34.0516 27.2625 34.1062 27.2049 34.1538 27.1387C34.1646 27.1194 34.1758 27.1012 34.1867 27.0818C34.1967 27.064 34.2107 27.047 34.2203 27.0284C34.2049 27.362 34.0617 27.6418 33.8848 27.8786C33.7509 28.0593 33.1499 28.7102 33.0191 28.8836C32.6999 29.2981 32.4418 29.6502 32.2823 30.055C31.5575 31.9044 32.3682 33.6141 33.4646 34.1547C33.9882 34.4144 34.6766 34.6678 35.5601 34.4759C35.8542 34.4113 36.2404 34.2526 36.4617 34.0556C36.5097 34.0134 36.5624 33.9682 36.6111 33.9206C36.9056 33.6311 37.1448 33.2639 37.2264 32.9477C37.2984 32.6567 37.2934 32.3448 37.2612 32.0739Z" fill="#DBB467"/>
<path id="Vector_10" d="M4.6487 38.4769C4.74119 38.3709 4.85032 38.2788 4.9757 38.2126C5.03026 38.1801 5.08986 38.1515 5.15371 38.1186C5.33946 38.0338 6.1262 37.8152 6.29182 37.7428C6.42185 37.6887 6.55072 37.6267 6.63237 37.5799C7.19891 37.2452 8.2724 36.4031 7.80686 34.9705C7.80686 34.9705 7.50811 34.0758 6.78716 33.9883C6.9168 34.154 7.00348 34.3583 7.03057 34.5835C7.11145 35.2251 6.67842 35.8075 6.06699 35.8822C5.9687 35.895 5.8704 35.8946 5.77598 35.8803C5.63048 35.8563 5.47878 35.8222 5.30735 35.7557C5.24388 35.7286 5.17848 35.7011 5.11114 35.6667C4.98034 35.6028 3.93859 35.0905 3.18398 35.4113C3.00093 35.4906 2.83763 35.5626 2.67587 35.6833C2.68593 35.6806 2.69444 35.6806 2.70334 35.6798C2.68283 35.6942 2.65806 35.7011 2.63949 35.7181C2.3508 35.977 2.33184 36.4228 2.58879 36.7084C2.85039 36.9979 3.29233 37.018 3.58179 36.7568C3.80083 36.5587 3.86351 36.2541 3.76561 35.9941C3.92311 36.1597 4.03262 36.3725 4.06165 36.6171C4.09106 36.8354 4.05042 37.0494 3.96064 37.2336C3.95329 37.2638 3.92892 37.2994 3.89951 37.3435C3.89951 37.347 3.89486 37.3516 3.89254 37.3547C3.87745 37.3768 3.85965 37.3996 3.84262 37.4255C3.84146 37.4286 3.83913 37.4317 3.83642 37.4344C3.65609 37.6825 3.33915 38.0702 3.26021 38.4266C3.23351 38.54 3.22499 38.6596 3.23351 38.7842C3.24163 38.8937 3.2695 38.9982 3.30317 39.0984C3.31323 39.1259 3.32213 39.1514 3.33374 39.1758C3.35812 39.2312 3.38482 39.2853 3.4181 39.3368C3.42971 39.3558 3.439 39.374 3.45061 39.391C3.4626 39.408 3.4715 39.4239 3.48311 39.4394C3.48543 39.4425 3.48737 39.4467 3.48853 39.4487C3.48737 39.4467 3.48737 39.4444 3.48543 39.4425C3.70988 39.7335 4.05856 39.9126 4.43741 39.8902C4.58756 39.8809 4.72339 39.8434 4.84955 39.7791C4.86812 39.7691 4.96293 39.7091 4.99118 39.6832C4.99428 39.6805 4.99776 39.6793 5.00008 39.6739C5.02601 39.6522 5.10186 39.5647 5.12392 39.535C5.20557 39.4115 5.24969 39.2641 5.23808 39.1054C5.2164 38.7761 4.96409 38.5191 4.6487 38.4769Z" fill="#DBB467"/>
<path id="Vector_11" d="M6.29199 11.6106C6.43866 11.7174 6.61822 11.7773 6.81635 11.7773C7.31672 11.7773 7.72615 11.3718 7.72615 10.8687C7.72615 10.3691 7.31788 9.96201 6.81674 9.96046C6.53502 9.96201 6.28348 10.0889 6.11824 10.289C5.99092 9.91751 6.06019 9.31265 6.17435 9.01274C6.44369 8.29721 6.99785 8.00117 7.56516 7.87734C8.70676 7.63277 9.21874 8.30573 9.21874 8.30573C7.60618 8.80068 8.31668 10.3378 8.31668 10.3378C8.55467 9.20314 10.6722 9.68726 11.1103 9.84166C14.1617 10.9082 17.4166 8.59945 16.4665 5.26521C16.1755 4.24397 15.371 3.79739 14.9337 3.62557C14.7568 3.55475 14.2518 3.39841 13.8865 3.41505C13.1996 3.4491 12.7592 3.85002 12.5127 4.21223C12.457 4.29505 12.4102 4.3856 12.3719 4.47848C12.3719 4.47848 12.3719 4.48041 12.3711 4.48234C12.3661 4.4955 12.3622 4.50595 12.3599 4.51833C12.3359 4.57367 12.3165 4.63559 12.3014 4.69712C12.2983 4.70564 12.2983 4.71105 12.2976 4.71725C12.2902 4.74782 12.2871 4.77916 12.2782 4.81128C12.2832 4.80664 12.2832 4.8047 12.2832 4.80199C12.212 5.37163 12.5878 5.91108 13.1586 6.03647C13.7658 6.16997 14.3652 5.78571 14.5003 5.18124C14.5962 4.73969 14.4198 4.30472 14.085 4.05164C14.2042 4.07447 14.3168 4.11433 14.4256 4.16077C14.4608 4.17508 14.4898 4.1925 14.5223 4.20953C14.597 4.24745 14.6694 4.29002 14.7371 4.33801C14.77 4.36122 14.7998 4.3829 14.8288 4.40728C14.8992 4.46223 14.9612 4.52298 15.0227 4.5876C15.0444 4.60966 15.0664 4.63133 15.085 4.65533C15.1643 4.74782 15.234 4.84688 15.2936 4.95563C15.2951 4.95833 15.2974 4.96182 15.2974 4.96182C15.3365 5.03225 15.3667 5.105 15.3965 5.17891C15.4097 5.21374 15.4209 5.24663 15.4325 5.28069C15.4948 5.47031 15.5304 5.67077 15.5304 5.88168C15.5269 6.65332 15.0792 7.31544 14.4395 7.59988C12.9937 8.42453 11.3111 7.08635 11.3111 7.08635C7.48661 4.54813 5.72197 7.42728 5.72197 7.42728C4.73594 9.04176 5.30326 10.3312 5.77421 11.0483C6.04239 11.4565 6.29199 11.6106 6.29199 11.6106Z" fill="#DBB467"/>
<path id="Vector_12" d="M3.86618 13.866C4.44472 13.8405 4.90755 13.4132 5.00469 12.8645C5.00585 12.8645 5.00469 12.8625 5.00585 12.8614C5.01978 12.7743 5.02791 12.6869 5.02326 12.5975C4.99269 11.9299 4.42383 11.4118 3.75474 11.4404C3.67889 11.4443 3.60729 11.4563 3.53725 11.4737C3.5001 11.4818 3.46256 11.4961 3.42657 11.5077C3.408 11.5147 3.38439 11.5205 3.3635 11.5267V11.5313C2.89796 11.7155 2.57367 12.178 2.59959 12.7112C2.62823 13.3784 3.19671 13.8954 3.86618 13.866Z" fill="#DBB467"/>
<path id="Vector_13" d="M5.00251 30.0552C4.84346 29.6501 4.58147 29.2979 4.26337 28.8839C4.13257 28.7101 3.53159 28.0596 3.39885 27.8789C3.22007 27.642 3.07649 27.3622 3.06372 27.0283C3.07379 27.0499 3.08849 27.0685 3.1001 27.0883C3.10978 27.1041 3.11713 27.1184 3.12913 27.1347C3.17595 27.202 3.23052 27.2651 3.29708 27.3146C3.31294 27.3259 3.32881 27.3355 3.34545 27.3464C3.42014 27.3963 3.50024 27.4354 3.59389 27.4567C4.00796 27.5526 4.42242 27.293 4.51569 26.8766C4.61127 26.4602 4.35238 26.0477 3.93831 25.9509C3.8702 25.9358 3.73707 25.9335 3.73707 25.9335V25.9316L3.73553 25.9335L3.73359 25.9316H3.62756C3.58228 25.9335 3.5401 25.9459 3.4956 25.9517C3.44761 25.959 3.40156 25.9637 3.35551 25.9738C3.2963 25.9892 3.23903 26.0121 3.18176 26.0349C3.14074 26.0508 3.1001 26.0643 3.06179 26.0825C3.00839 26.1115 2.95769 26.1444 2.90854 26.18C2.87372 26.2025 2.84082 26.2226 2.80793 26.2489C2.76033 26.286 2.72009 26.3286 2.67791 26.3685C2.6512 26.3979 2.61792 26.425 2.592 26.4555C2.55523 26.4973 2.52466 26.5422 2.49099 26.5875C2.46777 26.6212 2.44069 26.6533 2.41785 26.6881C2.38922 26.7326 2.36832 26.776 2.34587 26.8201C2.32769 26.8561 2.30447 26.8955 2.28783 26.9327C2.26809 26.976 2.25493 27.0194 2.23984 27.0619C2.22746 27.0991 2.21082 27.1359 2.19998 27.1707C2.17947 27.2481 2.16322 27.3239 2.15741 27.3928C2.07537 28.1977 2.30447 28.7124 2.5622 29.2248C2.58194 29.2712 2.59974 29.3208 2.61792 29.373C2.85592 30.0634 2.45268 30.5757 1.93064 30.6767C1.70116 30.7205 1.44188 30.6578 1.21318 30.5301C1.22053 30.8273 1.44575 31.0479 1.44653 31.0506C2.13303 31.6802 2.99794 31.1349 2.99794 31.1349C3.05676 31.1036 3.10978 31.0676 3.15699 31.0219C3.16473 31.1427 3.16667 31.2708 3.16202 31.4058C3.12565 32.6794 1.99566 33.456 0.985633 32.8442C0.433023 32.5091 0.308803 31.9638 0.21438 31.4553C0.21438 31.4553 0.189613 31.5211 0.159429 31.6074C0.157107 31.6129 0.155946 31.6179 0.153624 31.6233C0.136984 31.6717 0.118795 31.7235 0.100994 31.7781C0.0653918 31.8888 0.0321125 32.0014 0.0235989 32.0741C-0.00968153 32.3446 -0.0158751 32.6565 0.0591994 32.9479C0.135822 33.2637 0.380395 33.6313 0.671405 33.9208C0.720939 33.9684 0.771244 34.0133 0.821165 34.0559C1.04058 34.2525 1.42912 34.4111 1.72322 34.4761C2.60902 34.6681 3.2963 34.4146 3.81912 34.1549C4.91234 33.6143 5.72578 31.9046 5.00251 30.0552Z" fill="#DBB467"/>
<path id="Vector_14" d="M30.5861 26.1671C30.5861 37.434 18.6357 41.3557 18.6357 41.3557C18.6357 41.3557 6.68652 37.434 6.68652 26.1671V17.5362C6.68652 17.5362 10.1558 15.4519 18.6357 13.7144C27.1196 15.4519 30.5861 17.5362 30.5861 17.5362V26.1671Z" fill="#850C70"/>
<path id="Vector_15" d="M20.5294 25.6184C20.5283 25.6184 20.5283 25.6188 20.524 25.6188C20.524 25.6188 20.5228 25.6184 20.517 25.6184C20.517 25.6184 20.5132 25.6184 20.5097 25.6173V25.6157C20.4996 25.6068 20.4888 25.5987 20.4888 25.5859C20.4888 25.5736 20.4996 25.5658 20.5097 25.5596V25.5569L20.5132 25.5542C20.517 25.5538 20.5228 25.5511 20.524 25.5511C20.5283 25.5511 20.5283 25.553 20.5294 25.553C22.8439 25.1544 24.6105 23.0392 24.6105 20.489C24.6105 17.6547 22.4276 15.3561 19.7357 15.3561C17.1398 15.3561 15.0378 17.2488 14.8702 20.1755C14.8686 20.2169 14.8628 20.3868 14.8628 20.3868V20.4638V20.6279V21.0056V29.5215C14.9097 30.5645 14.3439 31.475 13.9956 31.6592V30.857V29.4225V26.8425V20.7901C13.9979 20.6461 14.0026 20.5207 14.0026 20.4054V20.3048V20.2286C14.0026 20.2286 14.0099 20.0579 14.0134 20.0161C14.0769 18.873 14.4406 17.8436 15.0103 17.0673C10.9864 17.9605 11.0518 21.6256 11.0518 21.6256L11.0503 21.7359V26.8425V30.857V33.2474V34.009C11.3049 33.9989 11.5441 33.9362 11.7867 33.9002C13.0169 33.7029 14.0637 32.9498 14.52 32.5237C15.756 31.3609 15.6705 29.6632 15.6705 29.6632V29.4693V29.3021H15.6724V20.8241L15.6705 20.8137C15.6705 20.8137 15.5656 18.0235 17.5156 16.9299C17.8217 16.76 18.1793 16.6316 18.5937 16.5588C18.6487 16.5488 19.2276 16.4741 19.7698 16.6966C20.101 16.8324 20.4083 17.0302 20.6215 17.236C21.399 17.9937 21.8835 19.313 21.8835 20.7835C21.8835 23.1762 20.5646 25.1278 18.9099 25.2326H17.456H16.6019C16.6093 25.678 16.9808 26.043 17.456 26.0828H18.5879C20.4888 26.1026 22.099 27.0832 22.6868 28.4453L22.6942 28.4422C22.986 29.0904 23.1543 29.8095 23.1543 30.5645C23.1543 32.9467 21.5391 34.9497 19.3476 35.5345C19.2671 35.5554 19.1854 35.5751 19.1069 35.591L17.6015 34.0047L17.5984 34.0067C17.2002 33.5821 16.6422 33.3178 16.0323 33.3178C14.8454 33.3178 13.8807 34.3008 13.8265 35.5341C13.8265 35.5341 14.282 35.6618 14.5173 35.4826C14.6454 35.3882 14.6806 35.2249 14.7332 35.0871C14.9391 34.5477 15.4425 34.1676 16.0323 34.1676C16.4177 34.1676 16.7649 34.3317 17.0179 34.5972L17.0203 34.5964L18.2257 35.87L19.4219 37.1312V37.1284L19.4869 37.1985C19.8363 37.1966 20.1281 37.1985 20.3382 37.1853C20.3576 37.1838 20.3785 37.1853 20.399 37.1853C23.6206 37.1536 26.2235 34.5748 26.2235 31.3976C26.2235 28.2697 23.6911 25.7194 20.5294 25.6184Z" fill="#DBB467"/>
<path id="Vector_16" d="M8.37468 38.4744C8.38938 38.4589 8.40796 38.4589 8.42034 38.4744L8.63124 38.683C8.64595 38.6962 8.64595 38.7171 8.63124 38.7306L7.26597 40.0963C7.25707 40.1052 7.25707 40.1152 7.26597 40.1253L7.68933 40.5498C7.70636 40.563 7.70636 40.5839 7.68933 40.5982L7.50397 40.7824C7.48926 40.7975 7.47185 40.7975 7.45637 40.7824L6.78495 40.111C6.77025 40.0963 6.77025 40.0765 6.78495 40.0618L8.37468 38.4744Z" fill="#850C70"/>
<path id="Vector_17" d="M9.53384 39.5984C9.54739 39.581 9.56712 39.581 9.58299 39.5949L10.3016 40.2137C10.3159 40.2272 10.3186 40.2458 10.3055 40.2613L10.1329 40.4602C10.1197 40.476 10.1008 40.4764 10.0861 40.4641L9.63175 40.0724C9.62285 40.0635 9.61279 40.0651 9.60273 40.0747L9.20607 40.536C9.19678 40.5476 9.19794 40.5569 9.20723 40.5662L9.60041 40.9029C9.61318 40.916 9.61859 40.9346 9.60543 40.9509L9.43323 41.1486C9.41968 41.1649 9.39995 41.166 9.38563 41.1529L8.99362 40.815C8.98317 40.8061 8.97349 40.8065 8.96575 40.817L8.55285 41.2972C8.54317 41.3081 8.54317 41.3181 8.55362 41.3262L9.00639 41.7152C9.02342 41.7283 9.02419 41.7473 9.01026 41.7639L8.84076 41.9624C8.82799 41.9791 8.80825 41.9791 8.79316 41.9655L8.07299 41.3464C8.05635 41.334 8.05518 41.3142 8.0695 41.2988L9.53384 39.5984Z" fill="#850C70"/>
<path id="Vector_18" d="M10.1077 41.5374C10.4885 41.0192 10.5438 40.9585 10.632 40.8977C10.8271 40.758 11.0573 40.7638 11.2872 40.9318C11.5546 41.1307 11.6153 41.395 11.4304 41.7092C11.4219 41.7274 11.3979 41.734 11.3824 41.7263L11.1316 41.6009C11.1146 41.5908 11.1096 41.5761 11.1188 41.5583C11.2113 41.4004 11.2028 41.2805 11.0941 41.2015C11.0155 41.1411 10.9203 41.1365 10.8557 41.1841C10.8011 41.2251 10.7822 41.2452 10.4049 41.7568C10.0256 42.2696 10.0132 42.2932 9.99157 42.3563C9.96371 42.4352 10.0028 42.5262 10.0767 42.5823C10.158 42.6426 10.2555 42.6492 10.3221 42.6024C10.3697 42.5649 10.3963 42.5432 10.6502 42.1972C10.6583 42.1856 10.6583 42.1763 10.6467 42.1694L10.5024 42.061C10.4857 42.0494 10.4815 42.03 10.4935 42.0146L10.6444 41.811C10.6568 41.7932 10.6742 41.7917 10.6908 41.8044L11.1076 42.1101C11.1235 42.1229 11.1262 42.1423 11.1146 42.1581L11.0542 42.2406C10.6742 42.756 10.6169 42.816 10.5299 42.8775C10.3337 43.0165 10.1038 43.011 9.87779 42.845C9.64754 42.6748 9.57517 42.4565 9.65102 42.2274C9.68392 42.1272 9.72455 42.054 10.1077 41.5374Z" fill="#850C70"/>
<path id="Vector_19" d="M12.5453 41.8731C12.5611 41.8591 12.5762 41.8522 12.5936 41.8626L12.8355 42.0159C12.8525 42.0259 12.8564 42.0453 12.8502 42.0646L12.0677 44.2275C12.0596 44.2464 12.0441 44.253 12.0271 44.2402L11.7829 44.087C11.762 44.0746 11.7601 44.0564 11.7678 44.0378L11.9373 43.5924L11.5511 43.3502L11.2237 43.695C11.2102 43.7112 11.1951 43.7174 11.1738 43.7058L10.9288 43.5502C10.9122 43.5398 10.9103 43.5228 10.925 43.5065L12.5453 41.8731ZM12.0538 43.3057L12.3738 42.4887L12.3653 42.4833L11.762 43.1203L12.0538 43.3057Z" fill="#850C70"/>
<path id="Vector_20" d="M13.1582 43.5528C13.4651 42.9851 13.5197 42.9073 13.592 42.8385C13.7596 42.6759 13.9736 42.6399 14.2213 42.7727C14.5131 42.9286 14.616 43.1767 14.4523 43.5261C14.4465 43.5466 14.4322 43.5583 14.4124 43.5501L14.1462 43.4619C14.1276 43.4569 14.1164 43.4402 14.1276 43.4174C14.2116 43.239 14.1919 43.133 14.075 43.0699C13.9841 43.0211 13.9156 43.0343 13.8513 43.0958C13.8099 43.1368 13.7836 43.1759 13.4864 43.7281C13.1907 44.2807 13.1757 44.3249 13.166 44.3814C13.1486 44.4688 13.1757 44.535 13.2654 44.5826C13.3819 44.6457 13.4821 44.6019 13.5855 44.4332C13.5967 44.4119 13.6168 44.4115 13.6335 44.4232L13.8548 44.5957C13.8687 44.6074 13.8676 44.6275 13.8548 44.643C13.6551 44.9715 13.3935 45.0257 13.101 44.8701C12.8525 44.7366 12.7627 44.5385 12.8049 44.309C12.8216 44.2103 12.8568 44.1217 13.1582 43.5528Z" fill="#850C70"/>
<path id="Vector_21" d="M14.5993 45.5707C14.5803 45.5621 14.5757 45.5451 14.5842 45.5269L14.9564 44.6911L15.0965 43.2952C15.0965 43.2739 15.1093 43.2646 15.1337 43.2759L15.4081 43.3981C15.4305 43.4086 15.4348 43.4221 15.4305 43.445L15.3016 44.3687L15.3125 44.3729L15.9049 43.657C15.9212 43.6388 15.9363 43.6342 15.9587 43.6435L16.2265 43.7631C16.2494 43.7727 16.2505 43.7882 16.235 43.806L15.2904 44.8385L14.917 45.6759C14.9085 45.6929 14.8895 45.7007 14.8702 45.6926L14.5993 45.5707Z" fill="#850C70"/>
<path id="Vector_22" d="M17.1403 46.6034C17.1066 46.502 17.0942 46.4215 17.0942 45.7768C17.0942 45.1348 17.1066 45.0539 17.1403 44.9525C17.2134 44.7246 17.4015 44.5911 17.6871 44.5911C17.9704 44.5911 18.1577 44.7246 18.2296 44.9525C18.2649 45.0539 18.2757 45.1348 18.2757 45.7768C18.2757 46.4215 18.2649 46.502 18.2296 46.6034C18.1577 46.831 17.9704 46.9648 17.6871 46.9648C17.4015 46.9648 17.2134 46.831 17.1403 46.6034ZM17.8821 46.5055C17.9023 46.4401 17.9038 46.4122 17.9038 45.7768C17.9038 45.1429 17.9023 45.1143 17.8821 45.0508C17.8578 44.9715 17.7823 44.9212 17.6871 44.9212C17.5892 44.9212 17.5137 44.9715 17.4905 45.0508C17.4696 45.1143 17.4669 45.1429 17.4669 45.7768C17.4669 46.4122 17.4696 46.4401 17.4905 46.5055C17.5137 46.5837 17.5892 46.6332 17.6871 46.6332C17.7823 46.6332 17.8578 46.5837 17.8821 46.5055Z" fill="#850C70"/>
<path id="Vector_23" d="M19.0088 44.6549C19.0088 44.6344 19.0227 44.6217 19.0417 44.6217H19.9894C20.0099 44.6217 20.025 44.6344 20.025 44.6549V44.9177C20.025 44.9386 20.0099 44.9521 19.9894 44.9521H19.3931C19.3784 44.9521 19.3714 44.9587 19.3714 44.9711V45.5961C19.3714 45.6112 19.3784 45.6178 19.3931 45.6178H19.9085C19.9306 45.6178 19.9441 45.6321 19.9441 45.6506V45.9142C19.9441 45.9335 19.9306 45.9475 19.9085 45.9475H19.3931C19.3784 45.9475 19.3714 45.954 19.3714 45.9684V46.8987C19.3714 46.9184 19.3571 46.9331 19.3381 46.9331H19.0417C19.0227 46.9331 19.0088 46.9184 19.0088 46.8987V44.6549Z" fill="#850C70"/>
<path id="Vector_24" d="M22.6206 45.6926C22.602 45.7007 22.585 45.6929 22.5761 45.6759L21.7665 43.9186C21.7607 43.9066 21.753 43.9028 21.7391 43.9105L21.4183 44.0564C21.4001 44.0668 21.3819 44.0587 21.373 44.0409L21.2631 43.8018C21.2542 43.784 21.2588 43.7654 21.2801 43.7576L22.2932 43.2902C22.3118 43.2817 22.3296 43.2898 22.3369 43.308L22.4484 43.5467C22.455 43.5653 22.4496 43.5831 22.4306 43.5916L22.1086 43.7391C22.0959 43.7453 22.0924 43.7557 22.0993 43.7662L22.9066 45.5238C22.9143 45.542 22.9093 45.5591 22.8907 45.5676L22.6206 45.6926Z" fill="#850C70"/>
<path id="Vector_25" d="M24.9228 44.5155C24.9054 44.526 24.8946 44.526 24.8787 44.512L24.1821 43.8445L24.1319 43.8727L24.0316 43.9292C24.0189 43.9362 24.0161 43.9455 24.0212 43.9559L24.4565 44.7369C24.4677 44.7554 24.4623 44.7729 24.4434 44.7825L24.1856 44.9273C24.1694 44.9381 24.1493 44.9319 24.1392 44.9141L23.0417 42.9513C23.0332 42.9331 23.0378 42.9153 23.056 42.9045L23.4616 42.6762C23.8226 42.4761 24.128 42.5136 24.3764 42.9564C24.5231 43.2214 24.5273 43.4374 24.4252 43.6073L25.1984 44.324C25.2135 44.334 25.2158 44.3518 25.1995 44.3603L24.9228 44.5155ZM24.0572 43.1344C23.9244 42.8956 23.8052 42.8631 23.6276 42.9645L23.5227 43.0225C23.5104 43.0287 23.5084 43.0384 23.5154 43.05L23.8447 43.6394C23.8501 43.6514 23.8602 43.6533 23.8714 43.6463L23.9755 43.5887C24.1562 43.4896 24.1922 43.3747 24.0572 43.1344Z" fill="#850C70"/>
<path id="Vector_26" d="M25.7487 43.3266L24.8006 41.923C24.7902 41.906 24.7925 41.8863 24.8111 41.8754L25.0553 41.7102C25.0723 41.6974 25.0928 41.7025 25.1029 41.7195L26.0788 43.1614C26.1601 43.2837 26.2793 43.3177 26.3907 43.2423C26.5045 43.166 26.5138 43.0457 26.431 42.9245L25.4566 41.4815C25.4438 41.4629 25.4496 41.4447 25.4655 41.4339L25.7112 41.2671C25.7278 41.2555 25.7472 41.259 25.7576 41.2764L26.7073 42.6811C26.9375 43.0217 26.8729 43.3166 26.5765 43.5162C26.2804 43.7167 25.9805 43.6672 25.7487 43.3266Z" fill="#850C70"/>
<path id="Vector_27" d="M28.3436 42.2056C28.0534 42.4417 27.7767 42.4073 27.5131 42.0988C27.5019 42.0849 27.4977 42.069 27.5124 42.0532L27.7032 41.8357C27.721 41.8183 27.7399 41.8202 27.7519 41.8357C27.916 42.0211 28.0298 42.0497 28.1521 41.9499C28.2666 41.8589 28.2712 41.7525 28.113 41.5555C27.9555 41.3644 27.8672 41.3307 27.6838 41.3887L27.5395 41.4348C27.2117 41.5389 27.0317 41.4681 26.8042 41.1875C26.555 40.8783 26.5569 40.5954 26.8518 40.3563C27.1502 40.1156 27.4094 40.1686 27.6505 40.4368C27.6645 40.4518 27.6629 40.4669 27.6505 40.4851L27.4652 40.6879C27.4512 40.7022 27.433 40.7069 27.4199 40.6906C27.2933 40.5474 27.18 40.5037 27.0635 40.5989C26.9516 40.6867 26.954 40.8001 27.0739 40.948C27.2101 41.1136 27.2833 41.1384 27.4706 41.0776L27.6122 41.0331C27.9233 40.934 28.1184 40.9859 28.3688 41.2928C28.6555 41.6476 28.6861 41.9293 28.3436 42.2056Z" fill="#850C70"/>
<path id="Vector_28" d="M29.8034 40.8882C29.7872 40.9025 29.7686 40.9025 29.7547 40.8882L28.4165 39.4939C28.4068 39.4862 28.3964 39.4862 28.3871 39.4939L28.1301 39.7408C28.1177 39.7543 28.0972 39.7543 28.0833 39.7396L27.9014 39.5508C27.8859 39.5349 27.8875 39.5159 27.9037 39.5016L28.7052 38.7308C28.7207 38.7149 28.7381 38.7172 28.7532 38.7308L28.9358 38.92C28.9493 38.9347 28.9493 38.9533 28.9358 38.9676L28.6788 39.2149C28.668 39.2226 28.668 39.2331 28.6788 39.2424L30.017 40.6359C30.0314 40.6494 30.0314 40.6692 30.0163 40.6835L29.8034 40.8882Z" fill="#850C70"/>
<path id="Vector_29" d="M19.1152 37.1794H19.3083" stroke="black" stroke-width="0.157889" stroke-miterlimit="10"/>
<path id="Vector_30" d="M19.688 37.1794H21.0177" stroke="black" stroke-width="0.157889" stroke-miterlimit="10"/>
<path id="Vector_31" d="M19.688 13.002H21.0177" stroke="black" stroke-width="0.157889" stroke-miterlimit="10"/>
<path id="Vector_32" d="M44.0034 13.002H44.1965" stroke="black" stroke-width="0.157889" stroke-miterlimit="10"/>
<path id="Vector_33" d="M63.2832 15.0588V14.7276H63.7534H63.7584H64.3854H71.0136C71.9803 14.7276 72.7418 14.9915 73.2917 15.5073C73.8463 16.0317 74.116 16.7399 74.116 17.6299C74.116 18.4093 73.892 19.0327 73.4411 19.511C73.029 19.9476 72.4528 20.2258 71.7249 20.3461L74.1911 23.9358H72.4172L69.9265 20.422H67.0582V19.0505H70.7872C71.9609 19.0505 72.5518 18.5757 72.5518 17.6299C72.5518 16.611 71.9203 16.1029 70.6448 16.1029H65.2793V17.121V19.0505V20.422V22.2327V23.9358H63.7534V15.3254C63.7197 15.1563 63.57 15.0588 63.2832 15.0588ZM59.1518 14.7276H58.6743V15.0588C58.9711 15.0588 59.1181 15.1563 59.1518 15.3386V17.121V18.7386V23.9358H60.6754V14.7276H59.781H59.1518ZM42.9438 13.4079V13.0152H43.4984H43.5061H44.248H52.3231C53.4318 13.0152 54.3022 13.2826 54.936 13.8263C55.5676 14.3684 55.8834 15.0925 55.8834 15.998C55.8834 16.9922 55.4128 17.7646 54.4682 18.3083C55.715 18.7317 56.3361 19.6434 56.3361 21.0667C56.3361 22.9784 54.96 23.9358 52.2074 23.9358H43.4984V13.7307C43.4597 13.5148 43.2863 13.4079 42.9438 13.4079ZM45.3133 17.5839H52.3541C52.8583 17.5839 53.2774 17.4368 53.6153 17.1485C53.9523 16.8668 54.121 16.5135 54.121 16.099C54.121 15.6505 53.9721 15.3018 53.6702 15.0371C53.3691 14.7705 52.9524 14.642 52.4315 14.642H45.3133V17.5839ZM45.3133 22.3035H52.2194C53.7286 22.3035 54.4852 21.8074 54.4852 20.8128C54.4852 19.7452 53.8242 19.2169 52.5062 19.2169H45.3133V22.3035ZM90.4904 14.7276L95.3594 23.9358H93.6942L92.6312 21.8709H86.4336L85.3702 23.9358H85.2069H83.7004H76.5699V18.7386V17.121V15.3386C76.5412 15.1563 76.3849 15.0588 76.095 15.0588V14.7276H76.5699H77.1964H78.0977V22.5577H84.4237L88.2459 15.3386C88.2199 15.1563 88.0679 15.0588 87.7761 15.0588V14.7276H88.2486H88.5713H88.8801H90.4904ZM91.8905 20.4998L89.5454 16.0352L87.1735 20.4998H91.8905Z" fill="#850C70"/>
<path id="Vector_34" d="M71.7283 29.4752H67.4131V28.1274H77.5373V29.4752H73.224V37.1572H72.3456H71.7318H71.7283H71.2678V36.8286C71.548 36.8286 71.6927 36.7315 71.7283 36.5609V29.4752ZM64.7205 34.4626C64.7205 33.8884 64.354 33.506 63.6226 33.3137C63.2407 33.215 62.2082 33.1063 60.5302 33.0026C59.0415 32.9054 58.0013 32.7023 57.3992 32.4062C56.7026 32.0552 56.3539 31.472 56.3539 30.6478C56.3539 29.7995 56.7498 29.1304 57.5443 28.6382C58.3391 28.1498 59.4579 27.9025 60.9048 27.9025C62.8521 27.9025 64.4798 28.3506 65.794 29.2365L64.8818 30.248C63.5456 29.5654 62.1803 29.2252 60.7911 29.2252C59.8689 29.2252 59.1642 29.3316 58.6754 29.5484C58.1813 29.7643 57.9394 30.0646 57.9394 30.4469C57.9394 30.849 58.1979 31.1381 58.7238 31.3173C59.0972 31.4542 59.7087 31.5448 60.5569 31.5955C61.805 31.6771 62.6265 31.7437 63.0263 31.794C64.1597 31.9446 64.9945 32.2205 65.5281 32.6272C66.0726 33.0335 66.3419 33.6124 66.3419 34.3632C66.3419 35.3198 65.919 36.0574 65.0715 36.5852C64.2236 37.1069 63.0023 37.3669 61.4137 37.3669C59.1123 37.3669 57.321 36.8615 56.042 35.8476L56.8636 34.7629C58.2776 35.6267 59.7969 36.0574 61.4296 36.0574C62.4818 36.0574 63.3045 35.9119 63.8858 35.622C64.4422 35.3415 64.7205 34.9529 64.7205 34.4626ZM121 34.3632C121 35.3198 120.577 36.0574 119.73 36.5852C118.879 37.1069 117.661 37.3669 116.075 37.3669C113.771 37.3669 111.979 36.8615 110.699 35.8476L111.523 34.7629C112.936 35.6267 114.457 36.0574 116.084 36.0574C117.14 36.0574 117.961 35.9119 118.543 35.622C119.1 35.3415 119.381 34.9529 119.381 34.4626C119.381 33.8884 119.016 33.506 118.283 33.3137C117.9 33.215 116.865 33.1063 115.19 33.0026C113.702 32.9054 112.659 32.7023 112.063 32.4062C111.364 32.0552 111.013 31.472 111.013 30.6478C111.013 29.7995 111.411 29.1304 112.201 28.6382C112.996 28.1498 114.119 27.9025 115.566 27.9025C117.508 27.9025 119.137 28.3506 120.452 29.2365L119.54 30.248C118.201 29.5654 116.838 29.2252 115.449 29.2252C114.53 29.2252 113.823 29.3316 113.332 29.5484C112.839 29.7643 112.595 30.0646 112.595 30.4469C112.595 30.849 112.859 31.1381 113.38 31.3173C113.757 31.4542 114.366 31.5448 115.217 31.5955C116.46 31.6771 117.283 31.7437 117.684 31.794C118.814 31.9446 119.649 32.2205 120.186 32.6272C120.727 33.0335 121 33.6124 121 34.3632ZM81.389 28.7241L76.9313 37.1572H78.5663L79.6084 35.1341H85.6891L86.7285 37.1572H88.3662L83.5913 28.1274H82.0073H81.7067H81.389H80.9292V28.4548C81.2117 28.4548 81.358 28.5515 81.389 28.7241ZM82.6633 29.4133L84.9627 33.7885H80.3348L82.6633 29.4133ZM42.9438 26.8379V26.4471H43.4938H43.4957H44.2263H54.2929V28.0438H45.2719V30.7941H51.5426V32.3907H45.2719V35.5609H54.71V37.1572H43.4957V28.3731H43.4938V27.1557C43.4562 26.9502 43.2817 26.8379 42.9438 26.8379ZM100.997 35.8078H108.949V37.1572H99.5013V29.4683V28.7283C99.4699 28.5515 99.3194 28.4548 99.0384 28.4548V28.1274H99.5013H100.12H108.604V29.4752H100.997V31.794H106.287V33.1395H100.997V35.8078ZM87.2181 28.1274H97.3434V29.4752H93.029V37.1572H92.1501H91.536H91.0689V36.8286C91.3549 36.8286 91.5008 36.7315 91.536 36.5609V29.4752H87.2181V28.1274Z" fill="#850C70"/>
</g>
</svg>
