<svg width="24" height="25" viewBox="0 0 24 25" fill="none" xmlns="http://www.w3.org/2000/svg">
<g id="Group">
<path id="Vector" d="M18 10.3979C18 8.80665 17.3679 7.28053 16.2426 6.15531C15.1174 5.03009 13.5913 4.39795 12 4.39795C10.4087 4.39795 8.88258 5.03009 7.75736 6.15531C6.63214 7.28053 6 8.80665 6 10.3979V18.3979H18V10.3979ZM20 19.0649L20.4 19.5979C20.4557 19.6722 20.4896 19.7606 20.498 19.853C20.5063 19.9455 20.4887 20.0385 20.4472 20.1216C20.4057 20.2046 20.3419 20.2745 20.2629 20.3233C20.1839 20.3721 20.0929 20.3979 20 20.3979H4C3.90714 20.3979 3.81612 20.3721 3.73713 20.3233C3.65815 20.2745 3.59431 20.2046 3.55279 20.1216C3.51126 20.0385 3.49368 19.9455 3.50202 19.853C3.51036 19.7606 3.54429 19.6722 3.6 19.5979L4 19.0649V10.3979C4 8.27622 4.84286 6.24139 6.34315 4.7411C7.84344 3.2408 9.87827 2.39795 12 2.39795C14.1217 2.39795 16.1566 3.2408 17.6569 4.7411C19.1571 6.24139 20 8.27622 20 10.3979V19.0649ZM9.5 21.3979H14.5C14.5 22.061 14.2366 22.6969 13.7678 23.1657C13.2989 23.6346 12.663 23.8979 12 23.8979C11.337 23.8979 10.7011 23.6346 10.2322 23.1657C9.76339 22.6969 9.5 22.061 9.5 21.3979Z" fill="#03053D"/>
</g>
</svg>
