<svg width="18" height="15" viewBox="0 0 18 15" fill="none" xmlns="http://www.w3.org/2000/svg">
<path d="M0.493164 6.44751H17.5073" stroke="#9B8049" stroke-linecap="round" stroke-linejoin="round"/>
<path d="M16.2921 11.3088V13.1318C16.2921 13.2929 16.2281 13.4475 16.1142 13.5615C16.0002 13.6754 15.8457 13.7394 15.6845 13.7394H13.8616C13.7004 13.7394 13.5458 13.6754 13.4319 13.5615C13.3179 13.4475 13.2539 13.2929 13.2539 13.1318V11.3088" stroke="#9B8049" stroke-linecap="round" stroke-linejoin="round"/>
<path d="M4.74674 11.3088V13.1318C4.74674 13.2929 4.68272 13.4475 4.56876 13.5615C4.45481 13.6754 4.30025 13.7394 4.13909 13.7394H2.31614C2.15499 13.7394 2.00043 13.6754 1.88647 13.5615C1.77252 13.4475 1.7085 13.2929 1.7085 13.1318V11.3088" stroke="#9B8049" stroke-linecap="round" stroke-linejoin="round"/>
<path d="M4.13916 8.87817H5.35446" stroke="#9B8049" stroke-linecap="round" stroke-linejoin="round"/>
<path d="M12.646 8.87817H13.8613" stroke="#9B8049" stroke-linecap="round" stroke-linejoin="round"/>
<path d="M16.2921 6.4476L14.0217 1.33955C13.974 1.23216 13.8961 1.14092 13.7976 1.07688C13.699 1.01284 13.584 0.978761 13.4665 0.97876H4.53406C4.41653 0.978761 4.30153 1.01284 4.20298 1.07688C4.10443 1.14092 4.02657 1.23216 3.97882 1.33955L1.7085 6.4476V11.3088H16.2921V6.4476Z" stroke="#9B8049" stroke-linecap="round" stroke-linejoin="round"/>
</svg>
