<svg width="24" height="25" viewBox="0 0 24 25" fill="none" xmlns="http://www.w3.org/2000/svg">
<g clip-path="url(#clip0_595_25837)">
<path d="M11 2.55347L18.298 4.83347C18.5015 4.89701 18.6794 5.02395 18.8057 5.19576C18.932 5.36756 19.0001 5.57524 19 5.78847V7.55347H21C21.2652 7.55347 21.5196 7.65882 21.7071 7.84636C21.8946 8.0339 22 8.28825 22 8.55347V16.5535C22 16.8187 21.8946 17.073 21.7071 17.2606C21.5196 17.4481 21.2652 17.5535 21 17.5535L17.78 17.5545C17.393 18.0645 16.923 18.5145 16.38 18.8845L11 22.5535L5.62 18.8855C4.81252 18.3349 4.15175 17.5955 3.69514 16.7314C3.23853 15.8673 2.9999 14.9048 3 13.9275V5.78847C3.00012 5.57541 3.06829 5.36796 3.19456 5.19635C3.32084 5.02475 3.49862 4.89796 3.702 4.83447L11 2.55347ZM11 4.64747L5 6.52347V13.9275C4.99986 14.5397 5.14025 15.1438 5.41036 15.6932C5.68048 16.2426 6.07311 16.7227 6.558 17.0965L6.747 17.2325L11 20.1335L14.782 17.5535H10C9.73478 17.5535 9.48043 17.4481 9.29289 17.2606C9.10536 17.073 9 16.8187 9 16.5535V8.55347C9 8.28825 9.10536 8.0339 9.29289 7.84636C9.48043 7.65882 9.73478 7.55347 10 7.55347H17V6.52347L11 4.64747ZM11 12.5535V15.5535H20V12.5535H11ZM11 10.5535H20V9.55347H11V10.5535Z" fill="#8C8C8C"/>
</g>
<defs>
<clipPath id="clip0_595_25837">
<rect width="24" height="24" fill="white" transform="translate(0 0.553467)"/>
</clipPath>
</defs>
</svg>
