<svg width="24" height="25" viewBox="0 0 24 25" fill="none" xmlns="http://www.w3.org/2000/svg">
<g clip-path="url(#clip0_595_25840)">
<path d="M12 14.5535V16.5535C10.4087 16.5535 8.88258 17.1856 7.75736 18.3108C6.63214 19.436 6 20.9622 6 22.5535H4C4 20.4317 4.84285 18.3969 6.34315 16.8966C7.84344 15.3963 9.87827 14.5535 12 14.5535ZM12 13.5535C8.685 13.5535 6 10.8685 6 7.55347C6 4.23847 8.685 1.55347 12 1.55347C15.315 1.55347 18 4.23847 18 7.55347C18 10.8685 15.315 13.5535 12 13.5535ZM12 11.5535C14.21 11.5535 16 9.76347 16 7.55347C16 5.34347 14.21 3.55347 12 3.55347C9.79 3.55347 8 5.34347 8 7.55347C8 9.76347 9.79 11.5535 12 11.5535ZM14.595 19.3655C14.4682 18.8319 14.4682 18.276 14.595 17.7425L13.603 17.1695L14.603 15.4375L15.595 16.0105C15.9932 15.6333 16.4745 15.3552 17 15.1985V14.0535H19V15.1985C19.532 15.3565 20.012 15.6385 20.405 16.0105L21.397 15.4375L22.397 17.1695L21.405 17.7425C21.5316 18.2757 21.5316 18.8312 21.405 19.3645L22.397 19.9375L21.397 21.6695L20.405 21.0965C20.0068 21.4736 19.5255 21.7517 19 21.9085V23.0535H17V21.9085C16.4745 21.7517 15.9932 21.4736 15.595 21.0965L14.603 21.6695L13.603 19.9375L14.595 19.3655ZM18 20.0535C18.3978 20.0535 18.7794 19.8954 19.0607 19.6141C19.342 19.3328 19.5 18.9513 19.5 18.5535C19.5 18.1556 19.342 17.7741 19.0607 17.4928C18.7794 17.2115 18.3978 17.0535 18 17.0535C17.6022 17.0535 17.2206 17.2115 16.9393 17.4928C16.658 17.7741 16.5 18.1556 16.5 18.5535C16.5 18.9513 16.658 19.3328 16.9393 19.6141C17.2206 19.8954 17.6022 20.0535 18 20.0535Z" fill="#8C8C8C"/>
</g>
<defs>
<clipPath id="clip0_595_25840">
<rect width="24" height="24" fill="white" transform="translate(0 0.553467)"/>
</clipPath>
</defs>
</svg>
