<svg width="24" height="25" viewBox="0 0 24 25" fill="none" xmlns="http://www.w3.org/2000/svg">
<g clip-path="url(#clip0_595_25831)">
<path d="M21 19.5535H23V21.5535H1V19.5535H3V4.55347C3 4.28825 3.10536 4.0339 3.29289 3.84636C3.48043 3.65882 3.73478 3.55347 4 3.55347H14C14.2652 3.55347 14.5196 3.65882 14.7071 3.84636C14.8946 4.0339 15 4.28825 15 4.55347V19.5535H19V11.5535H17V9.55347H20C20.2652 9.55347 20.5196 9.65882 20.7071 9.84636C20.8946 10.0339 21 10.2883 21 10.5535V19.5535ZM5 5.55347V19.5535H13V5.55347H5ZM7 11.5535H11V13.5535H7V11.5535ZM7 7.55347H11V9.55347H7V7.55347Z" fill="#850C70"/>
</g>
<defs>
<clipPath id="clip0_595_25831">
<rect width="24" height="24" fill="white" transform="translate(0 0.553467)"/>
</clipPath>
</defs>
</svg>
