<svg width="24" height="25" viewBox="0 0 24 25" fill="none" xmlns="http://www.w3.org/2000/svg">
<path d="M13.1202 17.4209L8.92121 15.1309C8.373 15.717 7.66119 16.1246 6.87828 16.3008C6.09537 16.477 5.27756 16.4136 4.53113 16.1189C3.7847 15.8243 3.14417 15.3119 2.69277 14.6484C2.24138 13.9848 2 13.2009 2 12.3984C2 11.5959 2.24138 10.812 2.69277 10.1485C3.14417 9.48496 3.7847 8.97256 4.53113 8.67787C5.27756 8.38318 6.09537 8.31982 6.87828 8.49602C7.66119 8.67223 8.373 9.07984 8.92121 9.66591L13.1212 7.37591C12.8828 6.43198 12.9968 5.4335 13.4418 4.56761C13.8869 3.70173 14.6325 3.02789 15.5389 2.67241C16.4452 2.31693 17.4501 2.30421 18.3652 2.63664C19.2803 2.96907 20.0427 3.62382 20.5095 4.47817C20.9764 5.33252 21.1156 6.3278 20.9011 7.27745C20.6866 8.22711 20.1332 9.06594 19.3444 9.63672C18.5557 10.2075 17.5859 10.471 16.6168 10.3779C15.6477 10.2848 14.7458 9.84142 14.0802 9.13091L9.88021 11.4209C10.0414 12.0623 10.0414 12.7335 9.88021 13.3749L14.0792 15.6649C14.7448 14.9544 15.6467 14.511 16.6158 14.4179C17.5849 14.3248 18.5547 14.5883 19.3434 15.1591C20.1322 15.7299 20.6856 16.5687 20.9001 17.5184C21.1146 18.468 20.9754 19.4633 20.5085 20.3176C20.0417 21.172 19.2793 21.8267 18.3642 22.1592C17.4491 22.4916 16.4442 22.4789 15.5379 22.1234C14.6315 21.7679 13.8859 21.0941 13.4408 20.2282C12.9958 19.3623 12.8818 18.3638 13.1202 17.4199V17.4209ZM6.00021 14.3979C6.53064 14.3979 7.03935 14.1872 7.41442 13.8121C7.78949 13.437 8.00021 12.9283 8.00021 12.3979C8.00021 11.8675 7.78949 11.3588 7.41442 10.9837C7.03935 10.6086 6.53064 10.3979 6.00021 10.3979C5.46977 10.3979 4.96107 10.6086 4.58599 10.9837C4.21092 11.3588 4.00021 11.8675 4.00021 12.3979C4.00021 12.9283 4.21092 13.437 4.58599 13.8121C4.96107 14.1872 5.46977 14.3979 6.00021 14.3979ZM17.0002 8.39791C17.5306 8.39791 18.0393 8.1872 18.4144 7.81212C18.7895 7.43705 19.0002 6.92834 19.0002 6.39791C19.0002 5.86748 18.7895 5.35877 18.4144 4.9837C18.0393 4.60862 17.5306 4.39791 17.0002 4.39791C16.4698 4.39791 15.9611 4.60862 15.586 4.9837C15.2109 5.35877 15.0002 5.86748 15.0002 6.39791C15.0002 6.92834 15.2109 7.43705 15.586 7.81212C15.9611 8.1872 16.4698 8.39791 17.0002 8.39791ZM17.0002 20.3979C17.5306 20.3979 18.0393 20.1872 18.4144 19.8121C18.7895 19.437 19.0002 18.9283 19.0002 18.3979C19.0002 17.8675 18.7895 17.3588 18.4144 16.9837C18.0393 16.6086 17.5306 16.3979 17.0002 16.3979C16.4698 16.3979 15.9611 16.6086 15.586 16.9837C15.2109 17.3588 15.0002 17.8675 15.0002 18.3979C15.0002 18.9283 15.2109 19.437 15.586 19.8121C15.9611 20.1872 16.4698 20.3979 17.0002 20.3979Z" fill="#03053D"/>
</svg>
